<?xml version="1.0" encoding="utf-8"?>
<!-- Generator: Adobe Illustrator 19.1.1, SVG Export Plug-In . SVG Version: 6.00 Build 0)  -->
<svg version="1.1" id="Слой_1" xmlns="http://www.w3.org/2000/svg" xmlns:xlink="http://www.w3.org/1999/xlink" x="0px" y="0px"
	 viewBox="0 0 127.6 127.6" style="enable-background:new 0 0 127.6 127.6;" xml:space="preserve">
<style type="text/css">
	.st0{fill-rule:evenodd;clip-rule:evenodd;fill:#FFFFFF;}
	.st1{fill-rule:evenodd;clip-rule:evenodd;fill:#290703;}
	.st2{fill-rule:evenodd;clip-rule:evenodd;fill:#D8B367;stroke:#231F20;stroke-width:0.5669;stroke-miterlimit:22.9256;}
</style>
<g>
	<circle class="st0" cx="63.8" cy="63.8" r="63.8"/>
	<path class="st1" d="M27.8,97.1l3-2.7l2,2.2l-8.2,7.3l-2.4-2.7c-2-2.2-2.2-4.1-0.6-5.5c0.9-0.8,2.1-1,3.4-0.6l1.4-5.6l2.2,2.5
		l-1.4,4.4L27.8,97.1L27.8,97.1z M26.2,98.6l-0.4-0.4c-0.7-0.8-1.4-0.9-2.1-0.2c-0.6,0.5-0.5,1.1,0.2,1.9l0.4,0.4L26.2,98.6
		L26.2,98.6z M11.9,85.7l1.4,2.6l5.6-3.1c0.7-0.4,1.3-0.5,1.7-0.5c0.4,0.1,0.8,0.4,1.1,0.9c0.3,0.5,0.3,1,0.2,1.4
		c-0.2,0.4-0.6,0.8-1.3,1.2L15,91.3l1.4,2.6l5.9-3.2c1.3-0.7,2-1.6,2.3-2.7c0.3-1.1,0.1-2.3-0.7-3.6c-0.7-1.3-1.7-2.2-2.7-2.5
		c-1.1-0.3-2.3-0.1-3.5,0.5L11.9,85.7L11.9,85.7z M16,71.8c0.7-0.2,1.3-0.1,1.9,0.1c0.6,0.2,1.1,0.6,1.5,1.2
		c0.4,0.6,0.7,1.3,0.9,2.1c0.2,0.7,0.3,1.3,0.3,1.8c0,0.5,0,1-0.2,1.6l-2.6,0.6c0.2-0.6,0.2-1.2,0.3-1.9c0-0.6,0-1.2-0.1-1.7
		c-0.1-0.4-0.2-0.7-0.4-0.9c-0.2-0.2-0.4-0.2-0.6-0.2c-0.1,0-0.3,0.1-0.4,0.2c-0.1,0.1-0.2,0.3-0.2,0.5c-0.1,0.2-0.2,0.7-0.4,1.6
		c-0.2,0.8-0.3,1.4-0.6,1.8c-0.2,0.4-0.5,0.8-0.8,1c-0.3,0.3-0.8,0.4-1.3,0.6c-1,0.2-1.8,0-2.6-0.5c-0.7-0.6-1.2-1.5-1.5-2.8
		c-0.3-1.1-0.3-2.3,0-3.6l2.4,0.4c-0.2,1.1-0.3,2-0.1,2.8c0.1,0.4,0.2,0.6,0.4,0.8c0.2,0.1,0.4,0.2,0.6,0.1c0.2,0,0.4-0.2,0.5-0.5
		c0.1-0.3,0.3-0.9,0.5-2c0.2-1,0.5-1.8,0.9-2.2C14.7,72.3,15.2,72,16,71.8L16,71.8z M15.4,62.1c0.7,0,1.3,0.2,1.8,0.5
		c0.5,0.3,0.9,0.8,1.2,1.5c0.3,0.6,0.4,1.4,0.5,2.3c0,0.7,0,1.3-0.1,1.8c-0.1,0.5-0.3,1-0.5,1.6l-2.6,0c0.3-0.6,0.5-1.2,0.7-1.8
		c0.2-0.6,0.2-1.2,0.2-1.7c0-0.4-0.1-0.8-0.2-1c-0.2-0.2-0.4-0.3-0.6-0.3c-0.2,0-0.3,0-0.4,0.1c-0.1,0.1-0.2,0.2-0.3,0.4
		c-0.1,0.2-0.3,0.7-0.7,1.5c-0.3,0.7-0.6,1.3-0.9,1.6c-0.3,0.4-0.7,0.6-1,0.8c-0.4,0.2-0.9,0.3-1.4,0.3c-1,0-1.8-0.4-2.4-1.1
		c-0.6-0.7-0.9-1.7-0.9-3c0-1.1,0.2-2.3,0.8-3.5l2.3,0.9c-0.5,1-0.7,1.9-0.7,2.7c0,0.4,0.1,0.7,0.2,0.8c0.1,0.2,0.3,0.3,0.5,0.3
		c0.2,0,0.4-0.1,0.6-0.3c0.2-0.2,0.5-0.8,0.9-1.8c0.4-0.9,0.9-1.6,1.4-2C14,62.3,14.7,62.1,15.4,62.1L15.4,62.1z M18.8,60.3
		L7.9,58.7l0.4-3l10.9,1.6L18.8,60.3L18.8,60.3z M21.4,48.5l1-3.1l-11.6,0l-1.2,3.8l9.4,6.8l1-3.1l-1.8-1.2l1.1-3.4L21.4,48.5
		L21.4,48.5z M16.8,48.2l-0.7,2.2c-1.5-1-2.5-1.6-3-1.9c-0.5-0.3-0.9-0.5-1.1-0.6c0.3,0,0.7,0.1,1.4,0.1c0.7,0,1.2,0.1,1.6,0.1
		L16.8,48.2L16.8,48.2z M28.4,35.3l-2.1,3.3l-8.7-0.7l0,0.1c1.1,0.6,1.9,1,2.4,1.3l4.2,2.6l-1.4,2.2l-9.3-5.8l2-3.3l8.6,0.6l0,0
		c-1-0.5-1.8-1-2.3-1.3l-4.2-2.6l1.4-2.2L28.4,35.3L28.4,35.3z M34.7,19.8c-0.7-0.9-1.5-1.3-2.4-1.4c-0.9,0-1.9,0.4-3,1.2l-3,2.3
		l6.8,8.7l2.3-1.8l-2.2-2.9l0.7-0.5c1.1-0.8,1.7-1.7,1.8-2.7C35.7,21.7,35.4,20.7,34.7,19.8L34.7,19.8z M31.6,24l-1.6-2l0.6-0.5
		c0.6-0.5,1.2-0.5,1.7,0.1c0.3,0.3,0.4,0.7,0.3,1.1c-0.1,0.4-0.3,0.7-0.6,1L31.6,24L31.6,24z M41.9,19.8l1.6,3.6l-2.7,1.2l-4.5-10
		l3.3-1.5c2.7-1.2,4.5-0.9,5.4,1.1c0.5,1.2,0.4,2.3-0.5,3.5l4.9,3.1l-3.1,1.4l-3.8-2.7L41.9,19.8L41.9,19.8z M41,17.7l0.5-0.2
		c0.9-0.4,1.2-1.1,0.9-1.9c-0.3-0.7-0.9-0.8-1.9-0.4L40,15.4L41,17.7L41,17.7z M59.8,13.2c-0.3-1.8-1-3.1-2-4
		c-1-0.8-2.4-1.1-4.2-0.8c-1.7,0.3-3,1-3.7,2.1c-0.8,1.1-1,2.5-0.7,4.4c0.3,1.8,1,3.1,2,4c1.1,0.8,2.4,1.1,4.1,0.8
		c1.7-0.3,3-1,3.7-2C59.8,16.5,60.1,15,59.8,13.2L59.8,13.2z M52.3,14.4c-0.3-2.1,0.2-3.3,1.7-3.5c0.7-0.1,1.3,0.1,1.8,0.5
		c0.4,0.5,0.8,1.2,0.9,2.3c0.2,1.1,0.1,1.9-0.2,2.5c-0.3,0.6-0.8,0.9-1.5,1C53.5,17.4,52.6,16.5,52.3,14.4L52.3,14.4z M67.1,18.7
		l-3,0l0.1-8.6l-2.7,0l0-2.4l8.3,0.1l0,2.4l-2.7,0L67.1,18.7L67.1,18.7z M77.8,20.7l-6.4-1.4l2.4-10.7l6.4,1.4l-0.5,2.3l-3.5-0.8
		l-0.4,1.7l3.2,0.7l-0.5,2.3l-3.2-0.7l-0.5,2l3.5,0.8L77.8,20.7L77.8,20.7z M87.8,15.6c-0.6-0.3-1.3-0.3-1.9,0.1
		c-0.6,0.4-1.1,1-1.6,1.9c-0.9,1.9-0.6,3.2,0.8,3.9c0.4,0.2,0.9,0.3,1.4,0.4c0.5,0.1,1,0.1,1.5,0.1L87,24.3c-1,0-2-0.3-3.1-0.8
		c-1.5-0.7-2.5-1.7-2.8-2.9c-0.4-1.2-0.2-2.7,0.6-4.3c0.5-1,1.1-1.8,1.8-2.4c0.8-0.6,1.6-0.9,2.5-1c0.9-0.1,1.9,0.1,2.9,0.6
		c1.1,0.5,2,1.2,2.8,2.1l-1.8,1.7c-0.3-0.3-0.6-0.7-0.9-1C88.6,16,88.2,15.8,87.8,15.6L87.8,15.6z M92.4,29.1l5.6-6.5l2,1.7l1.6-1.8
		L95.3,17l-1.6,1.8l2,1.7l-5.6,6.5L92.4,29.1L92.4,29.1z M100.1,36.7L95.7,32l8-7.5l4.5,4.8l-1.7,1.6l-2.4-2.6l-1.3,1.2l2.2,2.4
		l-1.7,1.6l-2.2-2.4l-1.5,1.4l2.4,2.6L100.1,36.7L100.1,36.7z M110.8,43.8c1.5-0.8,2.4-1.9,2.7-3.1c0.3-1.3,0.1-2.7-0.8-4.2
		l-1.8-3.3l-9.6,5.3l1.7,3.1c0.9,1.6,2,2.6,3.4,3C107.7,44.9,109.2,44.7,110.8,43.8L110.8,43.8z M109.2,41.2
		c-0.9,0.5-1.7,0.7-2.4,0.6c-0.7-0.1-1.2-0.6-1.6-1.4l-0.3-0.6l5.4-3l0.4,0.8c0.4,0.7,0.5,1.4,0.2,1.9
		C110.6,40.2,110.1,40.7,109.2,41.2L109.2,41.2z M108.6,59.1l2-0.9l-0.6-3.5l-2.1-0.2l-0.5-3.2l11.5,1.8l0.6,3.9l-10.3,5.3
		L108.6,59.1L108.6,59.1z M112.9,57.2l1.7-0.7c0.4-0.2,0.9-0.4,1.5-0.6c0.6-0.3,1-0.4,1.3-0.5c-0.3,0-0.7,0-1.3-0.1
		c-0.6,0-1.8-0.2-3.6-0.3L112.9,57.2L112.9,57.2z M112.8,66.9l-4-0.3l0.2-3l11,0.8l-0.3,3.6c-0.2,3-1.4,4.4-3.6,4.2
		c-1.3-0.1-2.2-0.8-2.8-2.1l-5,2.8l0.3-3.4l4.2-2L112.8,66.9L112.8,66.9z M115,67l0,0.6c-0.1,1,0.3,1.6,1.3,1.7
		c0.8,0.1,1.2-0.4,1.2-1.4l0-0.6L115,67L115,67z M105.7,80.2l2.1-6.2l10.4,3.5l-2.1,6.2l-2.3-0.8l1.1-3.4l-1.6-0.6l-1.1,3.1
		l-2.3-0.8l1.1-3.1l-2-0.7L108,81L105.7,80.2L105.7,80.2z M101.8,88l-1.6,2.8l11.4,2.3l2-3.4l-7.8-8.6l-1.6,2.8l1.5,1.5l-1.8,3.1
		L101.8,88L101.8,88z M106.3,89.2l1.2-2c1.3,1.2,2.1,2.1,2.6,2.5c0.4,0.4,0.8,0.7,1,0.9c-0.3-0.1-0.7-0.2-1.3-0.4
		c-0.6-0.2-1.1-0.3-1.6-0.4L106.3,89.2L106.3,89.2z M96.8,99.3c-0.5-0.5-0.8-1-1-1.6c-0.1-0.6-0.1-1.3,0.1-1.9
		c0.2-0.7,0.6-1.3,1.2-2c0.5-0.5,1-0.9,1.4-1.2c0.4-0.3,0.9-0.5,1.5-0.8l1.9,1.8c-0.6,0.2-1.2,0.5-1.7,0.8c-0.5,0.3-1,0.7-1.3,1.1
		c-0.3,0.3-0.5,0.6-0.5,0.9c0,0.3,0,0.5,0.2,0.6c0.1,0.1,0.2,0.2,0.4,0.2c0.1,0,0.3,0,0.5-0.1c0.2-0.1,0.7-0.2,1.5-0.6
		c0.7-0.3,1.3-0.5,1.8-0.5c0.5-0.1,0.9,0,1.3,0.1c0.4,0.1,0.8,0.4,1.2,0.8c0.7,0.7,1.1,1.5,1,2.4c-0.1,0.9-0.6,1.9-1.5,2.8
		c-0.8,0.8-1.8,1.5-3,2l-1-2.2c1-0.4,1.8-0.9,2.3-1.5c0.3-0.3,0.4-0.5,0.4-0.8c0-0.2,0-0.4-0.2-0.5c-0.2-0.1-0.4-0.2-0.7-0.2
		c-0.3,0-0.9,0.3-1.9,0.7c-1,0.4-1.7,0.6-2.3,0.5C97.9,100.1,97.3,99.8,96.8,99.3z"/>
	<path class="st1" d="M37.2,108.2c0.2-0.4,0.5-0.6,0.8-0.7c0.3-0.1,0.7,0,1.2,0.2c0.4,0.2,0.7,0.5,0.8,0.8c0.1,0.3,0.1,0.7-0.1,1.1
		c-0.2,0.4-0.5,0.6-0.8,0.7c-0.3,0.1-0.7,0-1.1-0.2c-0.4-0.2-0.7-0.5-0.8-0.8C37,109,37,108.6,37.2,108.2L37.2,108.2z M50.3,118.5
		l-2.8-0.8l1.6-5.4c0.2-0.7,0.4-1.3,0.6-1.8c-0.2,0.2-0.5,0.3-0.8,0.5l-1.4,0.6l-0.9-2.2l4.3-1.9l2.5,0.7L50.3,118.5L50.3,118.5z
		 M63.1,114.4c-0.2,2.1-0.7,3.6-1.7,4.4c-1,0.9-2.4,1.2-4.4,1.1c-0.7,0-1.1-0.1-1.5-0.2l0.2-2.3c0.4,0.1,0.8,0.2,1.2,0.2
		c1,0.1,1.8-0.1,2.4-0.5c0.6-0.4,0.9-1,1.1-1.9l-0.1,0c-0.2,0.3-0.4,0.6-0.6,0.7c-0.2,0.1-0.4,0.2-0.7,0.3c-0.3,0.1-0.6,0.1-1,0
		c-0.9-0.1-1.6-0.4-2.1-1.1c-0.5-0.7-0.7-1.5-0.6-2.6c0.1-1.2,0.5-2.1,1.2-2.7c0.7-0.6,1.7-0.9,2.8-0.8c1.3,0.1,2.3,0.6,2.9,1.5
		C63,111.5,63.2,112.8,63.1,114.4L63.1,114.4z M59.3,111.4c-0.3,0-0.6,0.1-0.8,0.3c-0.2,0.2-0.3,0.6-0.4,1.1c0,0.4,0,0.7,0.2,1
		c0.2,0.2,0.4,0.4,0.8,0.4c0.3,0,0.6-0.1,0.8-0.3c0.3-0.2,0.4-0.5,0.4-0.8c0-0.4,0-0.8-0.2-1.1C59.9,111.6,59.6,111.4,59.3,111.4
		L59.3,111.4z M71.6,119.6l-2.9,0.2l-0.4-5.6c-0.1-0.7-0.1-1.3-0.1-1.9c-0.2,0.2-0.4,0.5-0.6,0.7l-1.1,1.1l-1.6-1.7l3.4-3.3l2.6-0.2
		L71.6,119.6L71.6,119.6z M77.3,118.5l1.2-9l-4.4,1.3l-0.7-2.3l7.4-2.1l0.5,1.6l-1.1,9.6L77.3,118.5L77.3,118.5z M90.3,108.4
		c-0.2-0.4-0.3-0.8-0.2-1.1c0.1-0.3,0.4-0.6,0.8-0.9c0.4-0.2,0.8-0.3,1.1-0.2c0.3,0.1,0.6,0.3,0.9,0.7c0.2,0.4,0.3,0.7,0.2,1.1
		c-0.1,0.3-0.4,0.6-0.8,0.9c-0.4,0.2-0.8,0.3-1.2,0.2C90.8,109,90.5,108.8,90.3,108.4z"/>
	<polygon class="st2" points="41.1,77.2 54.9,97.4 70.1,95.9 86.6,84.4 86.4,60.5 69.6,45.5 45.3,53.2 	"/>
	<path class="st1" d="M91.4,44v2.6v33.9c0,9.9-5.1,13.8-11.1,16.1c-5.6,2.4-11.8,3.3-15.3,6.9c-0.4,0.4-0.8,0.9-1.2,1.4
		c-0.4-0.5-0.8-1-1.2-1.4c-3.5-3.5-9.8-4.5-15.3-6.9c-6-2.3-11.1-6.3-11.1-16.1V46.6V46v-2V34c0-0.8,0.8-0.4,3.7,1.3
		c2.8,1.6,5,1.5,5.4,1.9c0.4,0.4-0.7,1.1-1.7,1.2c-0.9,0.1-2-0.2-2-0.1c0,1.7,5.3,1.1,6.6,1.4c0.8,0.2,0,1.4-1.5,1.8
		c-1.4,0.4-2.5-0.1-2.4,0.1c0.3,1.4,2.5,1.3,5.2,0.8c0.9-0.1,2.3-0.3,3.6-0.5c0.1,0,0.3,0,0.4,0l0,0c1.6-0.2,2.8-0.5,2.6-1.1
		c-3.5,0.8-5.6-1.1-4.5-1.6c0.9-0.3,5-0.2,7.4-1.6c0.7-0.4-1,0.2-2.6-0.1c-0.9-0.2-1.7-0.8-1.2-1.2c0.6-0.4,3.5-0.7,5.1-1.7
		c0.5-0.3,0.4-0.5,0.1-0.4c-2.2,0.8-3.9-0.1-2.6-0.7c2.6-1.2,4.6-2.5,6-3.9c0,0,0.1-0.1,0.2,0c0.1,0,0.2,0,0.2,0
		c1.4,1.3,3.4,2.7,6,3.9c1.3,0.6-0.4,1.4-2.6,0.7c-0.3-0.1-0.4,0.1,0.1,0.4c1.5,1,4.4,1.3,5.1,1.7c0.6,0.4-0.3,1-1.2,1.2
		c-1.6,0.3-3.3-0.3-2.6,0.1c2.4,1.4,6.5,1.2,7.4,1.6c1.2,0.4-0.9,2.3-4.5,1.6c-0.2,0.6,1,0.9,2.6,1.1l0,0l0,0l0,0l0,0l0,0l0,0l0,0
		l0,0l0,0l0,0l0,0l0,0l0,0l0,0l0,0l0,0l0,0l0,0l0,0l0,0l0,0l0,0l0,0l0,0l0,0l0,0l0,0l0,0l0,0l0,0l0,0l0,0l0,0l0,0l0,0l0,0l0,0l0,0
		l0,0h0l0,0l0,0l0,0l0,0l0,0l0,0l0,0l0,0l0,0l0,0l0,0l0,0l0,0h0l0,0l0,0l0,0l0,0l0,0l0,0l0,0l0,0l0,0l0,0l0,0l0,0l0,0l0,0
		c1.3,0.2,2.8,0.3,3.6,0.5c2.6,0.4,4.8,0.6,5.2-0.8c0.1-0.2-1.1,0.2-2.4-0.1c-1.5-0.4-2.3-1.6-1.5-1.8c1.3-0.3,6.6,0.3,6.6-1.4
		c0-0.1-1.2,0.2-2,0.1c-1-0.1-2.1-0.8-1.7-1.2c0.4-0.4,2.6-0.2,5.4-1.9c2.9-1.7,3.8-2,3.7-1.3V44L91.4,44z M62.9,51.3
		c-0.6,0.1-1.2,0.1-1.8-0.1c-1.3-0.4-2.8-0.1-4.1,0.8c-1.3,0.9-2.5,1.8-3.8,2.8c-0.9,0.7-1.6,1.2-2.5,1.9c-0.8,0.6-1.6,1.1-2.3,1.8
		c-4.6,3.8-4.9,14.3-3.5,19.9c0.3,1.1,0.4,0.6,0.4-0.1c0-0.3,0-0.7,0-1.2c0.2-1.6,0.5-3.8,1.4-5.2c1.6-2.5,5.1-2.1,5.7,2.3
		c0.2,1.5,0.3,2.7,0.4,3.6c0.2,3.1,0.6,6,1.5,9c0.6,2.2,1.6,4.2,3.3,6.1c1.8,2,0.7-0.1,0.1-1.3c-2.2-3.9-3.6-14.1,2.6-18.5
		c0.1-0.1,0.2-0.1,0.3-0.2c0.1-0.1,0.3-0.1,0.3,0.1c4.7,8.2,6.5,3.1,9.7,5.2c0.5,0.6,0.5,0.5,1.7,1.8c2,2.4,6.1,2.4,6.2-1.2
		c-0.2-0.2-0.3-0.3-0.4,0.3c-0.2,0.8-1.3,1.1-1.7,1.2c-0.5,0.1-0.9-0.2-1.3-0.5c-0.4-0.3-0.7-0.7-0.7-1.2c0-0.6,0.1-0.8,0.7-0.8
		c0.6,0,1.6,0,2.5-0.3c1.3-0.3,1.4-0.5,0.8-1.7c-1.6-3.1-1.7-4.1-2.1-4.7c-0.4-0.6-1.3-0.7-2.3-0.4c-1,0.4-1.9,0.6-2.2,2
		c-0.2,0.8-1.1,1.3-2.3,0.8c-1.4-0.6-1.6-1.2-1.3-2.6c0.2-0.8,0.4-1.2,1.3-1.3c0.9-0.2,1.6-0.2,2.5-0.1c0.7,0.1,1.6,0.1,1.9-0.2
		c0.5-0.4,0-2.1-0.2-2.8c-0.1-0.2-0.3-0.5-0.3-0.8c0-0.7,2.1,0.2,2.4,2.5c0.3,2.2,2.9-1,4.2,0.6c0.6,0.7,0.7,0.9,0.8,1.6
		c0.1,0.7-0.6,1.6-0.8,2.1c-0.2,0.3-0.1,0.5,0.3,0.6c0.5,0.2,0.9-0.3,1.2-0.5c0.9-0.8,1.3-1.7,1.4-3c0.1-1.2-0.7-4.4-2.2-5.5
		c-1.1-0.8-1.8-0.5-2.3-0.6c-0.7-0.2-1-0.6-0.5-1.6c0.7-1.3,1.9-2.3,3.3-2c0.5,0.1,0.7,0.4,0.9,0.8c0.1,0.2,0.1,0.4,0.1,0.6
		c0,0,0,0.1,0,0.1c0,0,0.1-0.1,0-0.4c-0.2-2.1-1.6-3.7-4.6-2.3c-0.3,0-0.5-0.3-0.8-0.6c-1.2-1.7-1.7-3.7-3.4-5.3
		c-2.1-2.2-5.5-3.6-8.8-2.1C64,50.9,63.4,51.1,62.9,51.3L62.9,51.3z M66,61.9c-1.5-1-3.2-1.3-4.5-0.5c-1.1,0.7-1.2,2.8-1,4.6
		c0.1,1.6,0.7,4.2,2.4,1.4c1.7-2.8,2.7-2.4,3.6-3.4C67.3,63.2,66.7,62.3,66,61.9L66,61.9z M72.2,60.6c0.7-0.5,1.4-0.3,1.3-0.8
		c-0.2-1-1.7-0.9-0.6-2c1-1.1,1.1-1.7,0.3-2.9c-1-1.5-3.6-2.9-5.4-2.9c-4.4,0-12,5.6-4.1,6.2c3.5,0.3,7.4,1.6,5.5,2.8
		c-0.7,0.4-0.9,1.8,0.9,1.4c1.1-0.3,2-0.4,3.2-0.3c1.3,0.1,0.8-0.6,0.3-0.7C72.1,61,71.7,60.9,72.2,60.6L72.2,60.6z M61.2,53
		c0.3-0.2,0-0.4-0.2-0.4c-1.9-0.4-3.3,0.2-3.6,1.9c-0.1,0.7,1.3-0.5,2.4-1.1C60.5,53.1,61,53.1,61.2,53z"/>
</g>
</svg>
