<?xml version="1.0" encoding="utf-8"?>
<!-- Generator: Adobe Illustrator 19.1.1, SVG Export Plug-In . SVG Version: 6.00 Build 0)  -->
<svg version="1.1" id="Слой_1" xmlns="http://www.w3.org/2000/svg" xmlns:xlink="http://www.w3.org/1999/xlink" x="0px" y="0px"
	 viewBox="0 0 277.8 129" style="enable-background:new 0 0 277.8 129;" xml:space="preserve">
<style type="text/css">
	.st0{fill-rule:evenodd;clip-rule:evenodd;fill:#392622;}
	.st1{fill-rule:evenodd;clip-rule:evenodd;fill:#D0B17D;}
</style>
<path class="st0" d="M95,24.4v4.5v58.2c-0.1,16.9-8.8,23.7-19.1,27.7c-9.6,4.1-20.3,5.7-26.3,11.8c-0.7,0.7-1.4,1.6-2,2.4
	c-0.6-0.9-1.3-1.7-2-2.4c-6-6.1-16.8-7.8-26.3-11.8C8.8,110.8,0.1,104.1,0,87.1V28.9v-1.2v-3.4V7.2c-0.1-1.3,1.4-0.7,6.4,2.2
	c4.8,2.8,8.6,2.5,9.2,3.2c0.7,0.7-1.2,1.8-2.9,2.1c-1.5,0.2-3.5-0.4-3.5-0.1c0,2.9,9.1,1.9,11.3,2.5c1.3,0.3,0,2.5-2.6,3.1
	c-2.4,0.6-4.3-0.2-4.2,0.2c0.6,2.4,4.3,2.2,8.9,1.4c1.5-0.2,4-0.5,6.3-0.8c0.2,0,0.4-0.1,0.6-0.1l0,0c2.7-0.3,4.9-0.9,4.4-1.9
	c-6.1,1.3-9.7-2-7.7-2.7c1.5-0.6,8.6-0.4,12.6-2.7c1.2-0.7-1.8,0.4-4.5-0.2c-1.5-0.3-2.9-1.4-2-2c1.1-0.7,6.1-1.3,8.7-3
	c0.8-0.5,0.7-0.9,0.2-0.7c-3.7,1.3-6.7-0.1-4.4-1.1c4.5-2,8-4.4,10.3-6.7c0,0,0.2-0.1,0.3-0.1c0.1,0,0.3,0,0.3,0.1
	c2.3,2.3,5.9,4.7,10.3,6.7c2.3,1-0.7,2.5-4.4,1.1c-0.5-0.2-0.6,0.2,0.2,0.7c2.6,1.7,7.6,2.2,8.7,3c1,0.6-0.4,1.7-2,2
	c-2.7,0.5-5.7-0.5-4.5,0.2c4.1,2.3,11.1,2.1,12.6,2.7c2,0.7-1.6,4-7.7,2.7c-0.4,1,1.8,1.5,4.4,1.9l0,0l0,0l0,0l0,0l0,0l0,0l0,0l0,0
	l0,0l0,0l0,0l0,0l0,0l0,0l0,0l0,0l0,0l0,0l0,0l0,0l0,0l0,0l0,0l0,0l0,0l0,0l0,0l0,0l0,0l0,0l0,0l0,0l0,0l0,0l0,0l0,0l0,0l0,0l0,0h0
	l0,0l0,0l0,0l0,0l0,0l0,0l0,0l0,0l0,0l0,0l0,0l0,0l0,0l0,0l0,0l0,0l0,0l0,0l0,0l0,0l0,0l0,0l0,0l0,0l0,0l0,0l0,0l0,0
	c2.3,0.3,4.8,0.6,6.3,0.8c4.5,0.7,8.3,1,8.9-1.4c0.1-0.4-1.8,0.4-4.2-0.2c-2.6-0.7-3.9-2.8-2.6-3.1c2.2-0.6,11.4,0.4,11.3-2.5
	c0-0.3-2,0.3-3.5,0.1c-1.8-0.2-3.6-1.3-2.9-2.1c0.7-0.7,4.4-0.4,9.2-3.2c5-2.9,6.4-3.5,6.4-2.2V24.4z"/>
<path class="st1" d="M43.1,39.9c-0.3,0.2-1.2,0.2-2.3,0.8c-1.9,1-4.4,3.1-4.1,1.8c0.6-2.9,2.9-3.9,6.2-3.3
	C43.1,39.2,43.7,39.5,43.1,39.9 M62,52.9c-0.9,0.6-0.1,0.8,2.3,1.4c0.8,0.1,1.7,1.3-0.6,1.1c-2-0.1-3.5,0-5.5,0.5
	c-3,0.7-2.7-1.7-1.5-2.4c3.3-2-3.5-4.2-9.5-4.7c-13.5-1.2-0.5-10.7,7.1-10.7c3.1,0,7.5,2.3,9.3,5c1.4,2.1,1.3,3.1-0.5,5
	c-1.9,2,0.8,1.8,1.1,3.5C64.3,52.3,63.1,52.1,62,52.9z M51.4,55.1c1.2,0.8,2.2,2.4,1.1,3.6c-1.7,1.8-3.4,1.1-6.2,5.8
	c-3,4.9-3.9,0.4-4.2-2.4c-0.3-3.1-0.3-6.6,1.7-7.9C45.8,52.8,48.7,53.3,51.4,55.1z M46,36.9c1-0.2,1.9-0.6,2.7-1
	c5.7-2.6,11.6-0.2,15.2,3.6c2.8,2.8,3.8,6.2,5.8,9.1c0.4,0.5,0.7,1,1.3,1c5.2-2.4,7.6,0.3,7.9,4c0,0.5,0,0.7-0.1,0.7
	c0,0-0.1,0-0.1-0.1c-0.1-0.4-0.1-0.7-0.2-1.1c-0.4-0.7-0.8-1.3-1.6-1.4c-2.3-0.4-4.4,1.2-5.6,3.5c-0.9,1.7-0.3,2.3,0.8,2.7
	c0.8,0.3,2.1-0.3,3.9,1.1c2.6,1.9,3.9,7.3,3.8,9.4c-0.1,2.2-0.9,3.7-2.4,5.1c-0.5,0.5-1.3,1.2-2,0.9c-0.6-0.2-0.8-0.4-0.5-1
	c0.4-0.9,1.6-2.5,1.4-3.7c-0.2-1.1-0.3-1.4-1.3-2.7c-2.3-2.9-6.8,2.6-7.2-1.1c-0.5-3.9-4.1-5.5-4-4.3c0,0.4,0.4,0.9,0.6,1.3
	c0.4,1.1,1.3,4.1,0.4,4.8C64,68,62.5,68,61.3,67.9c-1.5-0.1-2.7-0.2-4.2,0.1c-1.5,0.3-1.8,1-2.2,2.3c-0.6,2.3-0.2,3.4,2.2,4.4
	c2,0.8,3.6,0,4-1.4c0.6-2.4,2.1-2.9,3.8-3.5c1.6-0.6,3.2-0.4,3.9,0.7c0.7,1.1,0.9,2.8,3.6,8.1c1.1,2.1,0.9,2.4-1.3,3
	c-1.6,0.4-3.3,0.4-4.4,0.4c-1,0-1.1,0.3-1.1,1.4c0,1,0.5,1.7,1.2,2.1c0.7,0.5,1.4,0.9,2.2,0.8c0.8-0.1,2.6-0.6,3-2
	c0.2-1,0.4-0.9,0.7-0.6c-0.1,6.1-7.2,6.2-10.6,2c-1.9-2.3-1.9-2.1-2.8-3.1c-5.5-3.5-8.6,5.1-16.7-8.9c-0.1-0.2-0.3-0.3-0.6-0.1
	c-0.2,0.1-0.3,0.2-0.5,0.4c-10.6,7.6-8.2,25.1-4.5,31.7c1.2,2.1,3,5.6-0.1,2.3c-2.9-3.2-4.5-6.7-5.7-10.4
	c-1.5-5.1-2.2-10.1-2.5-15.4c-0.1-1.7-0.3-3.7-0.6-6.2c-1-7.5-6.9-8.1-9.7-3.9c-1.5,2.3-2.2,6.1-2.4,8.9c-0.1,0.8-0.1,1.5-0.1,2.1
	c0.1,1.2-0.1,2-0.6,0.2c-2.5-9.6-1.8-27.6,6-34.1c1.3-1,2.6-2,3.9-3c1.5-1.1,2.7-2,4.3-3.2c2.1-1.6,4.3-3.2,6.5-4.8
	c2.2-1.6,4.8-2.2,7.1-1.5C44,37,45,37,46,36.9z"/>
<path class="st0" d="M202,58.3h-1c-0.8,0-1.3,0.2-1.8,0.5c-0.4,0.3-0.6,0.8-0.6,1.4c0,0.7,0.2,1.3,0.6,1.6c0.4,0.4,1.1,0.6,1.9,0.6
	h0.9V58.3z M200.6,65.9l-3.5,6.4h-5.4l4.8-7.7c-0.9-0.5-1.6-1.1-2-2c-0.5-0.8-0.7-1.7-0.7-2.7c0-3.4,2.4-5.2,7.1-5.2h5.8v17.5H202
	v-6.4H200.6z M173.4,54.8h4.2v7.5c0,0.8-0.1,2.4-0.2,4.8h0.1l7-12.3h5.8v17.5h-4.2v-7.3c0-1.1,0.1-2.8,0.2-5h-0.1l-7,12.3h-5.8V54.8
	z M165.5,58.4c-1.1,0-2,0.5-2.6,1.4c-0.6,0.9-0.9,2.2-0.9,3.8c0,3.4,1.3,5.1,3.8,5.1c0.8,0,1.5-0.1,2.3-0.3c0.7-0.2,1.5-0.5,2.2-0.8
	v4c-1.5,0.7-3.1,1-5,1c-2.6,0-4.7-0.8-6.1-2.3c-1.4-1.5-2.1-3.8-2.1-6.6c0-1.8,0.3-3.4,1-4.8c0.7-1.4,1.7-2.4,2.9-3.2
	c1.3-0.7,2.8-1.1,4.5-1.1c1.9,0,3.7,0.4,5.4,1.2l-1.4,3.7c-0.6-0.3-1.3-0.6-1.9-0.8C167,58.5,166.3,58.4,165.5,58.4z M150.3,58.4
	c-1.1,0-2,0.5-2.6,1.4c-0.6,0.9-0.9,2.2-0.9,3.8c0,3.4,1.3,5.1,3.8,5.1c0.8,0,1.5-0.1,2.3-0.3c0.7-0.2,1.5-0.5,2.2-0.8v4
	c-1.5,0.7-3.1,1-5,1c-2.6,0-4.7-0.8-6.1-2.3c-1.4-1.5-2.1-3.8-2.1-6.6c0-1.8,0.3-3.4,1-4.8c0.7-1.4,1.7-2.4,2.9-3.2
	c1.3-0.7,2.8-1.1,4.5-1.1c1.9,0,3.7,0.4,5.4,1.2l-1.4,3.7c-0.6-0.3-1.3-0.6-1.9-0.8C151.8,58.5,151.1,58.4,150.3,58.4z M127.6,63.5
	c0,3.4,1.2,5.1,3.5,5.1c1.2,0,2.1-0.4,2.7-1.2c0.6-0.8,0.9-2.1,0.9-3.8c0-1.8-0.3-3-0.9-3.9c-0.6-0.8-1.5-1.3-2.6-1.3
	C128.8,58.4,127.6,60.1,127.6,63.5z M139.6,63.5c0,2.9-0.7,5.2-2.2,6.7c-1.4,1.5-3.6,2.3-6.4,2.3c-2.7,0-4.9-0.8-6.3-2.3
	c-1.5-1.5-2.2-3.8-2.2-6.7c0-2.9,0.7-5.1,2.2-6.7c1.5-1.5,3.6-2.3,6.4-2.3c2.8,0,4.9,0.8,6.3,2.3C138.9,58.3,139.6,60.5,139.6,63.5z
	 M112.7,62.6h0.9c0.7,0,1.3-0.2,1.7-0.6c0.4-0.4,0.6-1,0.6-1.7c0-1.2-0.7-1.8-2-1.8h-1.2V62.6z M120.7,60.3c0,2-0.6,3.5-1.7,4.5
	c-1.2,1.1-2.8,1.6-4.9,1.6h-1.3v5.8H108V54.8h6.1c2.2,0,3.9,0.5,5,1.4C120.2,57.2,120.7,58.6,120.7,60.3z M273.1,33.4h-1
	c-0.8,0-1.3,0.2-1.8,0.5c-0.4,0.3-0.6,0.8-0.6,1.4c0,0.7,0.2,1.3,0.6,1.6c0.4,0.4,1.1,0.6,1.9,0.6h0.9V33.4z M271.6,41l-3.5,6.4
	h-5.4l4.8-7.7c-0.9-0.5-1.6-1.1-2-2c-0.5-0.8-0.7-1.7-0.7-2.7c0-3.4,2.4-5.2,7.1-5.2h5.8v17.5h-4.7V41H271.6z M256.3,40.2l-0.8-2.9
	c-0.2-0.6-0.4-1.5-0.6-2.5c-0.2-1-0.4-1.7-0.5-2.2c-0.1,0.4-0.2,1.1-0.4,2c-0.2,0.9-0.7,2.8-1.4,5.5H256.3z M258.1,47.4l-0.9-3.3
	h-5.7l-0.9,3.3h-5.2l5.7-17.6h6.3l5.8,17.6H258.1z M243.8,47.4h-4.8v-7.1h-5.5v7.1h-4.8V29.8h4.8v6.5h5.5v-6.5h4.8V47.4z
	 M219.6,43.5v-9.8h-3.1c-0.3,3.4-1.2,6.7-2.7,9.8H219.6z M222.1,50.6v-3.2h-10.2v3.2h-4.6v-7.1h1.5c1-1.8,1.9-3.8,2.6-6.2
	c0.7-2.3,1.1-4.8,1.3-7.5h11.7v13.6h2.4v7.1H222.1z M206.3,47.4h-10.4V29.8h10.4v3.8h-5.7v2.7h5.3v3.8h-5.3v3.3h5.7V47.4z M184.4,40
	v3.7h1.7c1.5,0,2.2-0.6,2.2-1.9c0-0.6-0.2-1-0.6-1.3c-0.4-0.3-1-0.5-1.7-0.5H184.4z M184.4,36.6h1.4c0.7,0,1.2-0.1,1.6-0.4
	c0.4-0.3,0.6-0.7,0.6-1.2c0-1-0.7-1.5-2.2-1.5h-1.3V36.6z M179.6,29.8h6.1c2.4,0,4.1,0.4,5.3,1.1c1.2,0.7,1.7,1.8,1.7,3.3
	c0,1-0.3,1.8-0.8,2.5c-0.5,0.7-1.2,1.1-2,1.3v0.1c1.1,0.3,1.9,0.8,2.4,1.4c0.5,0.7,0.7,1.5,0.7,2.6c0,1.6-0.6,2.8-1.8,3.8
	c-1.2,0.9-2.8,1.4-4.9,1.4h-6.8V29.8z M164.7,38.6c0,3.4,1.2,5.1,3.5,5.1c1.2,0,2.1-0.4,2.7-1.2c0.6-0.8,0.9-2.1,0.9-3.8
	c0-1.8-0.3-3-0.9-3.9c-0.6-0.8-1.5-1.3-2.6-1.3C165.9,33.5,164.7,35.2,164.7,38.6z M176.7,38.6c0,2.9-0.7,5.2-2.2,6.7
	c-1.4,1.5-3.6,2.3-6.4,2.3c-2.7,0-4.9-0.8-6.3-2.3c-1.5-1.5-2.2-3.8-2.2-6.7c0-2.9,0.7-5.1,2.2-6.7c1.5-1.5,3.6-2.3,6.4-2.3
	c2.8,0,4.9,0.8,6.3,2.3C176,33.4,176.7,35.6,176.7,38.6z M156.8,47.4h-4.8V33.7h-4.8v13.6h-4.8V29.8h14.4V47.4z M133.8,40.2
	l-0.8-2.9c-0.2-0.6-0.4-1.5-0.6-2.5c-0.2-1-0.4-1.7-0.5-2.2c-0.1,0.4-0.2,1.1-0.4,2c-0.2,0.9-0.7,2.8-1.4,5.5H133.8z M135.7,47.4
	l-0.9-3.3h-5.7l-0.9,3.3H123l5.7-17.6h6.3l5.8,17.6H135.7z M121.5,33.9c0,2.3-1.4,3.7-4.1,4.2v0.1c1.6,0.1,2.8,0.6,3.6,1.3
	c0.8,0.7,1.2,1.7,1.2,2.9c0,1.1-0.3,2-0.9,2.8c-0.6,0.8-1.4,1.4-2.5,1.8c-1.1,0.4-2.4,0.6-3.9,0.6c-2.8,0-5-0.3-6.7-0.9v-4.1
	c0.7,0.3,1.5,0.6,2.6,0.8c1,0.2,2,0.3,2.9,0.3c1.3,0,2.3-0.1,2.9-0.4c0.6-0.3,0.9-0.7,0.9-1.4c0-1.2-1.3-1.8-4-1.8h-2.1v-3.8h1.8
	c0.9,0,1.7,0,2.2-0.1c0.5-0.1,0.9-0.2,1.1-0.4c0.2-0.2,0.4-0.5,0.4-0.9c0-0.9-0.8-1.3-2.5-1.3c-1.6,0-3,0.4-4.2,1.2l-2-3.3
	c1-0.7,2.1-1.1,3.2-1.4c1.1-0.3,2.4-0.4,3.9-0.4c1.9,0,3.5,0.4,4.6,1.2C120.9,31.6,121.5,32.6,121.5,33.9z"/>
</svg>
